<svg xmlns="http://www.w3.org/2000/svg" viewBox="0 0 183 191" width="90" height="94"><style>.B{stroke:#7d7d7c}.C{stroke:#727170}.D{fill:#e3e2df}.E{stroke:#5f5e5d}.F{fill:#bdbcb9}.G{stroke:#4f4f4d}.H{fill:#f9f9f8}.I{fill:#9e9d9a}.J{stroke:#dbdbd9}></style><g fill="none" stroke-width="2"><path vector-effect="non-scaling-stroke" d="M32.4 58.4q-2.57 30.97 25.9 43.31c29.01 12.58 73.84 8.59 84.55-26.86q5.58-18.49-.15-36.87c-3.33-10.65-11.69-19.04-20.85-25.07q-7.22-4.75-13.95-5.6" class="G"/><path vector-effect="non-scaling-stroke" d="M107.9 7.31C70.34-2.92 34.3 17.17 32.4 58.4" class="B"/><path stroke="#cccbc9" vector-effect="non-scaling-stroke" d="M107.9 7.31q-22.53-2.76-41.72 4.75c-11.37 4.46-19.21 11.5-24.34 22.27Q36.49 45.54 32.4 58.4"/><path vector-effect="non-scaling-stroke" d="M26.07 58.59q.03 1.37 1.29 2.16.63.4.44-.32l-.53-2.01a.61.61 0 0 0-1.2.17m127.56 4.16q-.01.56.24.97.37.61.56-.08.37-1.35-.34-2.34a.32.31-54 0 0-.56.09q-.08.3-.04.54.15.74.14.82m2.38-.88l.95 2.43q.36.93.52-.06.25-1.49-.34-2.78a.48.48 0 0 0-.72-.18l-.3.22a.31.31 0 0 0-.11.37m-5.04.34l.62 2.07q.11.37.26.01.68-1.63-.36-2.44-.82-.65-.52.36" class="G"/><path vector-effect="non-scaling-stroke" d="M161.079 64.262a1.15.54 58.6 0 0-.138-1.263 1.15.54 58.6 0 0-1.06-.7 1.15.54 58.6 0 0 .138 1.263 1.15.54 58.6 0 0 1.06.7" class="E"/><path vector-effect="non-scaling-stroke" d="M94.774 116.286a5.4.4-4.4 0 0-5.415.015 5.4.4-4.4 0 0-5.353.813 5.4.4-4.4 0 0 5.415-.016 5.4.4-4.4 0 0 5.353-.813m.696 3.365q1.3.32 2.28.03.8-.24-.02-.39-1.07-.19-2.23.05" class="G"/><path vector-effect="non-scaling-stroke" d="M95.5 119.34q-4.8-.55-9.24.82a.37.37 0 0 0-.26.41l.04.29q.07.53.61.44l8.82-1.65" class="C"/><path stroke="#c1c0bd" vector-effect="non-scaling-stroke" d="M95.5 119.34l-.03.31"/><path vector-effect="non-scaling-stroke" d="M86.4 123.71l.12.8a.16.16 0 0 0 .18.13l.19-.03a11.01.54-8.4 0 0 10.81-2.14v-.04a11.01.54-8.4 0 0-10.97 1.07l-.19.03a.16.16 0 0 0-.14.18m11.897 1.948a7.87.49-9.3 0 0-7.846.788 7.87.49-9.3 0 0-7.687 1.755 7.87.49-9.3 0 0 7.846-.788 7.87.49-9.3 0 0 7.687-1.755" class="C"/><path vector-effect="non-scaling-stroke" d="M94.71 129.69l-7.97 1.25a.45.45 0 0 0 .11.89q4.72-.52 9.23-1.83" class="B"/><path vector-effect="non-scaling-stroke" d="M96.08 130q1.44.19 2.65-.07.97-.21-.01-.36-1.98-.3-4.01.12" class="G"/><path stroke="#cccbc9" vector-effect="non-scaling-stroke" d="M96.08 130q-.29-.34-1.37-.31"/><path vector-effect="non-scaling-stroke" d="M97.471 133.548a5.59.54-6.8 0 0-5.615.126 5.59.54-6.8 0 0-5.487 1.198 5.59.54-6.8 0 0 5.615-.126 5.59.54-6.8 0 0 5.487-1.198" class="B"/><path vector-effect="non-scaling-stroke" d="M98.467 136.79a7.71.53-7.9 0 0-7.71.535 7.71.53-7.9 0 0-7.564 1.585 7.71.53-7.9 0 0 7.71-.535 7.71.53-7.9 0 0 7.564-1.585" class="C"/><path vector-effect="non-scaling-stroke" d="M99.346 140.344a6.74.49-7.9 0 0-6.743.441 6.74.49-7.9 0 0-6.609 1.412 6.74.49-7.9 0 0 6.743-.441 6.74.49-7.9 0 0 6.609-1.412m-.623 3.5a.33.33 0 0 0-.37-.284l-11.758 1.548a.33.33 0 0 0-.284.37l.026.198a.33.33 0 0 0 .37.284l11.758-1.548a.33.33 0 0 0 .284-.37l-.026-.198m-.776 3.621a6.57.53-7.3 0 0-6.584.309 6.57.53-7.3 0 0-6.449 1.361 6.57.53-7.3 0 0 6.584-.309 6.57.53-7.3 0 0 6.449-1.361" class="B"/><path vector-effect="non-scaling-stroke" d="M97.99 150.891a6.08.49-6.6 0 0-6.096.212 6.08.49-6.6 0 0-5.983 1.186 6.08.49-6.6 0 0 6.096-.212 6.08.49-6.6 0 0 5.983-1.186m-.491 3.161a5.51.52-7.8 0 0-5.53.233 5.51.52-7.8 0 0-5.388 1.263 5.51.52-7.8 0 0 5.53-.233 5.51.52-7.8 0 0 5.388-1.263m-.702 3.269a6.53.54-8 0 0-6.542.374 6.53.54-8 0 0-6.391 1.444 6.53.54-8 0 0 6.542-.374 6.53.54-8 0 0 6.391-1.444" class="C"/><path vector-effect="non-scaling-stroke" d="M96.56 160.552a4.66.39-7.5 0 0-4.671.222 4.66.39-7.5 0 0-4.569.995 4.66.39-7.5 0 0 4.671-.222 4.66.39-7.5 0 0 4.569-.995" class="E"/><path vector-effect="non-scaling-stroke" d="M98.579 163.266a6.08.59-5.8 0 0-6.109.027 6.08.59-5.8 0 0-5.989 1.201 6.08.59-5.8 0 0 6.109-.027 6.08.59-5.8 0 0 5.989-1.201m-1.54 3.875a5.17.54-5.2 0 0-5.198-.069 5.17.54-5.2 0 0-5.1 1.006 5.17.54-5.2 0 0 5.198.069 5.17.54-5.2 0 0 5.1-1.006" class="C"/><path vector-effect="non-scaling-stroke" d="M96.947 170.077a4.25.53-7.2 0 0-4.283.007 4.25.53-7.2 0 0-4.15 1.058 4.25.53-7.2 0 0 4.283-.007 4.25.53-7.2 0 0 4.15-1.058" class="E"/><path vector-effect="non-scaling-stroke" d="M96.702 173.407a3.23.67-6.1 0 0-3.283-.323 3.23.67-6.1 0 0-3.141 1.009 3.23.67-6.1 0 0 3.283.323 3.23.67-6.1 0 0 3.141-1.009" class="C"/><path vector-effect="non-scaling-stroke" d="M96.42 177.185a2.59.59.1 0 0-2.589-.595 2.59.59.1 0 0-2.591.585 2.59.59.1 0 0 2.589.595 2.59.59.1 0 0 2.591-.585" class="G"/><path vector-effect="non-scaling-stroke" d="M95.459 180.426a1.77.63 1.8 0 0-1.749-.685 1.77.63 1.8 0 0-1.789.574 1.77.63 1.8 0 0 1.749.685 1.77.63 1.8 0 0 1.789-.574" class="E"/><path stroke="#c1c0bd" vector-effect="non-scaling-stroke" d="M57.36 91.38l-.68.31q-.56.24-.04.56 23.88 14.36 51.06 7.72a1 .98-13.9 0 0 .74-1.2q-.04-.16-.47-.29"/><path vector-effect="non-scaling-stroke" d="M107.97 98.48c14.4-5.38 23.75-15.78 28.1-30.46 4.1-13.88 3.93-27.33-7.05-38.02-12.45-12.13-27.49-17.6-44.71-15.04-20.58 3.05-41.65 17.83-43.33 40.03-1.16 15.37 2.68 27.94 16.38 36.39" class="G"/><path vector-effect="non-scaling-stroke" d="M107.97 98.48c-16.39 5.47-36.23 1.78-50.61-7.1" class="C"/><path vector-effect="non-scaling-stroke" d="M84.91 16.7c-17.38 2.1-32.64 11.74-40.24 27.98q-3.06 6.53-2 13.31" class="E"/><path vector-effect="non-scaling-stroke" d="M42.67 57.99q-1.1 6.99 1.35 15.25 2.57 8.66 9.99 14.01" class="C"/><path vector-effect="non-scaling-stroke" d="M54.01 87.25c13.67 10.91 36.27 15.23 52.75 9.86 18.85-6.13 30.21-24.81 30.02-44.46-.25-25.96-29.82-38.26-51.87-35.95" class="B"/><path stroke="#eeeeec" vector-effect="non-scaling-stroke" d="M54.01 87.25c1.47-2.32-1.06-4.98-2-7.53q-.51-1.36-.63-4.2c-.09-2.09-1.04-4.23-1.24-6.16Q48.5 53.72 54.07 39.1a1.96 1.91 81.1 0 1 .56-.79q1.13-.96.85-2.46-.1-.5.24-.88 1.82-2.03 2.15-4.75"/><path vector-effect="non-scaling-stroke" d="M57.87 30.22c8.24-7.21 17.16-9.71 27.04-13.52" class="J"/><path stroke="#d0cfcc" vector-effect="non-scaling-stroke" d="M57.87 30.22q-11.68 10.54-15.2 27.77"/><path vector-effect="non-scaling-stroke" d="M113.79 67.97q13.43 3.01 15.59-8.56.8-4.33-.86-7.66-2.08-4.13-6.54-5.18" class="J"/><path vector-effect="non-scaling-stroke" d="M121.98 46.57c-17.37-9.38-28.33 16.75-8.19 21.4" class="B"/><path vector-effect="non-scaling-stroke" d="M121.98 46.57c8.1 8.81 2.9 19.27-8.19 21.4" class="E"/><path vector-effect="non-scaling-stroke" d="M69.22 67.59c6.54 4.87 13.4 1.27 16.29-5.5q3.98-9.32-5.92-14.68" class="J"/><path vector-effect="non-scaling-stroke" d="M79.59 47.41c-18.23-10.05-28.4 15.46-10.37 20.18" class="B"/><path vector-effect="non-scaling-stroke" d="M79.59 47.41c6.81 9.51 1.19 20.73-10.37 20.18" class="E"/><path vector-effect="non-scaling-stroke" d="M64.37 87.49c15.71 7.73 39.79 9.87 53.45-3.62a.6.59 42.4 0 1 .8-.03q.8.67 1.96.75a1.6 1.6 0 0 0 1.09-2.86q-2.43-1.89-5.33-2.8a.63.63 0 0 0-.81.52q-.12.85.51 1.45a.53.53 0 0 1-.05.8c-14.15 10.74-35.75 7.9-50.98 1.74q-.51-.2-.51-.75v-.98a.87.87 0 0 0-1.44-.65c-2.15 1.88-4.72 6.76-1.48 8.67a1.26 1.26 0 0 0 1.89-.99l.06-.76q.06-.87.84-.49m57.96-36.61a3.49 3.49 0 1 0-6.98 0 3.49 3.49 0 1 0 6.98 0m-42.48.65a3.3 3.3 0 0 0-6.6 0 3.3 3.3 0 0 0 6.6 0" class="B"/></g><path d="M27.77 66.15l-3.31.29q-.48.04-.92-.17c-2.69-1.35-5.96-1.68-8.5-2.48q-4.7-1.49-9.65-1.74c-1.24-.07-2.62.7-3.83-.65a.47.47 0 0 1 .31-.79q6.29-.51 12.5-1.54c1.77-.3 3.68-1.33 6.01-1.1q.43.04.74-.26l.47-.48q.34-.34.81-.25 1.74.32 3.28-.46.52-.27 1.11-.27h1.16a.62.61-86.3 0 0 .61-.54c3.3-28.36 19.52-48.54 48.25-53.68 36.64-6.56 74.58 14.08 73.05 55.27q-.01.2-.14.34-.07.08-.18.19a1.36 1.08 9.8 0 0 1.56 1.76c3.6-.87 5.1.06 8.25.95 6.85 1.94 13.9 3.62 20.96 3.83a.89.89 0 0 1 .74 1.36q-.81 1.3-2.8 1.2c-5.16-.26-9.81.8-14.79 1.23q-3.29.28-6.51 1.04c-2.6.61-4.65-.29-7.22.17a1.6 1.59-.3 0 0-1.29 1.29c-4.11 22.88-20.55 37.97-43.32 41.88a.43.43 0 0 0-.33.57q1.67 4.53-.22 9.07-.15.36-.05.74l.75 2.97q.11.44.53.59.65.23 1.2-.3.23-.22.54-.19l3.18.33a1.52 1.51 39 0 1 .31 2.95l-5.51 1.77a1.5 1.41 7.4 0 0-.72.52q-1.77 2.47-.36 5.2a1.32 1.31 40 0 1 .09.95q-.34 1.22.18 2.36.26.57.87.5 2.94-.32 5.86.19a1.44 1.43-50.2 0 1 .25 2.76l-6.54 2.46a1.03 1.02 79.6 0 0-.67.98l.06 4.73q.02 1.63 1.63 1.39 3.04-.46 5.87.63a1.32 1.31 46 0 1-.04 2.47l-5.94 2.04a2.79 2.79 0 0 0-1.72 3.58q.34.95.34 2.05a2.17 2.16 87.1 0 0 2.38 2.16q2.73-.29 5.37.82a1.45 1.45 0 0 1-.2 2.74l-9.42 2.4q-.5.13-.65.63-2.57 8.71-6.41 16.93a1.18 1.18 0 0 1-2.06.13c-1.87-2.93-2.75-6.28-4.66-9.28-1.37-2.14-1.8-5.86-2.7-8.06a1.35 1.34-17.6 0 0-1.55-.8q-5.06 1.19-10.24.17a1.33 1.33 0 0 1-.31-2.51q3.11-1.48 6.69-.76a1.99 1.99 0 0 0 2.38-2.07l-.19-3.4a.77.77 0 0 0-.77-.73l-8.69-.07q-.35 0-.53-.3c-2.29-3.85 6.17-4.2 8.03-4.45a2.95 2.94 41.5 0 0-.36-5.86q-3.79-.05-7.38-.73a1.56 1.56 0 0 1 .07-3.07l8.26-1.19a1.06 1.04-81.6 0 0 .81-.61q.88-1.9.06-3.91-.22-.54-.78-.68-4.26-1.09-8.61-.54a1.31 1.3-9.5 0 1-1.43-1.01c-1.25-5.59 16.05-.66 10.62-8.52q-.2-.29-.55-.28l-8.25.35a1.73 1.73 0 0 1-.57-3.38c2.06-.62 9.46-1.62 10.16-3.68 1.59-4.65-2.22-3.83-4.9-4.06q-.58-.05-.7-.62-.7-3.21 1.28-5.73a1.07 1.07 0 0 0-.69-1.72c-25.77-3.64-47.28-17.01-49.67-45.38a.69.69 0 0 0-.75-.63zm4.63-7.75q-2.57 30.97 25.9 43.31c29.01 12.58 73.84 8.59 84.55-26.86q5.58-18.49-.15-36.87c-3.33-10.65-11.69-19.04-20.85-25.07q-7.22-4.75-13.95-5.6C70.34-2.92 34.3 17.17 32.4 58.4zm-6.33.19q.03 1.37 1.29 2.16.63.4.44-.32l-.53-2.01a.61.61 0 0 0-1.2.17zm127.56 4.16q-.01.56.24.97.37.61.56-.08.37-1.35-.34-2.34a.32.31-54 0 0-.56.09q-.08.3-.04.54.15.74.14.82zm2.38-.88l.95 2.43q.36.93.52-.06.25-1.49-.34-2.78a.48.48 0 0 0-.72-.18l-.3.22a.31.31 0 0 0-.11.37zm-5.04.34l.62 2.07q.11.37.26.01.68-1.63-.36-2.44-.82-.65-.52.36zm10.109 2.052a1.15.54 58.6 0 0-.138-1.263 1.15.54 58.6 0 0-1.06-.7 1.15.54 58.6 0 0 .138 1.263 1.15.54 58.6 0 0 1.06.7zm-66.305 52.024a5.4.4-4.4 0 0-5.415.015 5.4.4-4.4 0 0-5.353.813 5.4.4-4.4 0 0 5.415-.016 5.4.4-4.4 0 0 5.353-.813zm.696 3.364q1.3.32 2.28.03.8-.24-.02-.39-1.07-.19-2.23.05-4.8-.55-9.24.82a.37.37 0 0 0-.26.41l.04.29q.07.53.61.44l8.82-1.65zm-9.07 4.06l.12.8a.16.16 0 0 0 .18.13l.19-.03a11.01.54-8.4 0 0 10.81-2.14v-.04a11.01.54-8.4 0 0-10.97 1.07l-.19.03a.16.16 0 0 0-.14.18zm11.897 1.948a7.87.49-9.3 0 0-7.846.788 7.87.49-9.3 0 0-7.687 1.755 7.87.49-9.3 0 0 7.846-.788 7.87.49-9.3 0 0 7.687-1.755zm-3.587 4.032l-7.97 1.25a.45.45 0 0 0 .11.89q4.72-.52 9.23-1.83 1.44.19 2.65-.07.97-.21-.01-.36-1.98-.3-4.01.12zm2.761 3.858a5.59.54-6.8 0 0-5.615.126 5.59.54-6.8 0 0-5.487 1.198 5.59.54-6.8 0 0 5.615-.126 5.59.54-6.8 0 0 5.487-1.198zm.996 3.242a7.71.53-7.9 0 0-7.71.535 7.71.53-7.9 0 0-7.564 1.585 7.71.53-7.9 0 0 7.71-.535 7.71.53-7.9 0 0 7.564-1.585zm.879 3.553a6.74.49-7.9 0 0-6.743.441 6.74.49-7.9 0 0-6.609 1.412 6.74.49-7.9 0 0 6.743-.441 6.74.49-7.9 0 0 6.609-1.412zm-.623 3.5a.33.33 0 0 0-.37-.284l-11.758 1.548a.33.33 0 0 0-.284.37l.026.198a.33.33 0 0 0 .37.284l11.758-1.548a.33.33 0 0 0 .284-.37l-.026-.198zm-.777 3.621a6.57.53-7.3 0 0-6.584.309 6.57.53-7.3 0 0-6.449 1.361 6.57.53-7.3 0 0 6.584-.309 6.57.53-7.3 0 0 6.449-1.361zm.043 3.426a6.08.49-6.6 0 0-6.096.212 6.08.49-6.6 0 0-5.983 1.186 6.08.49-6.6 0 0 6.096-.212 6.08.49-6.6 0 0 5.983-1.186zm-.491 3.161a5.51.52-7.8 0 0-5.53.233 5.51.52-7.8 0 0-5.388 1.263 5.51.52-7.8 0 0 5.53-.233 5.51.52-7.8 0 0 5.388-1.263zm-.703 3.269a6.53.54-8 0 0-6.542.374 6.53.54-8 0 0-6.391 1.444 6.53.54-8 0 0 6.542-.374 6.53.54-8 0 0 6.391-1.444zm-.236 3.231a4.66.39-7.5 0 0-4.671.222 4.66.39-7.5 0 0-4.569.995 4.66.39-7.5 0 0 4.671-.222 4.66.39-7.5 0 0 4.569-.995zm2.019 2.714a6.08.59-5.8 0 0-6.109.027 6.08.59-5.8 0 0-5.989 1.201 6.08.59-5.8 0 0 6.109-.027 6.08.59-5.8 0 0 5.989-1.201zm-1.54 3.876a5.17.54-5.2 0 0-5.198-.069 5.17.54-5.2 0 0-5.1 1.006 5.17.54-5.2 0 0 5.198.069 5.17.54-5.2 0 0 5.1-1.006zm-.092 2.936a4.25.53-7.2 0 0-4.283.007 4.25.53-7.2 0 0-4.15 1.058 4.25.53-7.2 0 0 4.283-.007 4.25.53-7.2 0 0 4.15-1.058zm-.245 3.329a3.23.67-6.1 0 0-3.283-.323 3.23.67-6.1 0 0-3.141 1.009 3.23.67-6.1 0 0 3.283.323 3.23.67-6.1 0 0 3.141-1.009zm-.282 3.778a2.59.59.1 0 0-2.589-.595 2.59.59.1 0 0-2.591.585 2.59.59.1 0 0 2.589.595 2.59.59.1 0 0 2.591-.585zm-.961 3.241a1.77.63 1.8 0 0-1.749-.685 1.77.63 1.8 0 0-1.789.574 1.77.63 1.8 0 0 1.749.685 1.77.63 1.8 0 0 1.789-.574z"/><path d="M107.9 7.31q-22.53-2.76-41.72 4.75c-11.37 4.46-19.21 11.5-24.34 22.27Q36.49 45.54 32.4 58.4c1.9-41.23 37.94-61.32 75.5-51.09z" class="H"/><path d="M107.9 7.31q6.73.85 13.95 5.6c9.16 6.03 17.52 14.42 20.85 25.07q5.73 18.38.15 36.87c-10.71 35.45-55.54 39.44-84.55 26.86Q29.83 89.37 32.4 58.4q4.09-12.86 9.44-24.07c5.13-10.77 12.97-17.81 24.34-22.27q19.19-7.51 41.72-4.75zM57.36 91.38l-.68.31q-.56.24-.04.56 23.88 14.36 51.06 7.72a1 .98-13.9 0 0 .74-1.2q-.04-.16-.47-.29c14.4-5.38 23.75-15.78 28.1-30.46 4.1-13.88 3.93-27.33-7.05-38.02-12.45-12.13-27.49-17.6-44.71-15.04-20.58 3.05-41.65 17.83-43.33 40.03-1.16 15.37 2.68 27.94 16.38 36.39z" class="I"/><path d="M107.97 98.48c-16.39 5.47-36.23 1.78-50.61-7.1-13.7-8.45-17.54-21.02-16.38-36.39 1.68-22.2 22.75-36.98 43.33-40.03 17.22-2.56 32.26 2.91 44.71 15.04 10.98 10.69 11.15 24.14 7.05 38.02-4.35 14.68-13.7 25.08-28.1 30.46zM84.91 16.7c-17.38 2.1-32.64 11.74-40.24 27.98q-3.06 6.53-2 13.31-1.1 6.99 1.35 15.25 2.57 8.66 9.99 14.01c13.67 10.91 36.27 15.23 52.75 9.86 18.85-6.13 30.21-24.81 30.02-44.46-.25-25.96-29.82-38.26-51.87-35.95z"/><path d="M54.01 87.25c1.47-2.32-1.06-4.98-2-7.53q-.51-1.36-.63-4.2c-.09-2.09-1.04-4.23-1.24-6.16Q48.5 53.72 54.07 39.1a1.96 1.91 81.1 0 1 .56-.79q1.13-.96.85-2.46-.1-.5.24-.88 1.82-2.03 2.15-4.75c8.24-7.21 17.16-9.71 27.04-13.52 22.05-2.31 51.62 9.99 51.87 35.95.19 19.65-11.17 38.33-30.02 44.46-16.48 5.37-39.08 1.05-52.75-9.86zm59.78-19.28q13.43 3.01 15.59-8.56.8-4.33-.86-7.66-2.08-4.13-6.54-5.18c-17.37-9.38-28.33 16.75-8.19 21.4zm-44.57-.38c6.54 4.87 13.4 1.27 16.29-5.5q3.98-9.32-5.92-14.68c-18.23-10.05-28.4 15.46-10.37 20.18zm-4.85 19.9c15.71 7.73 39.79 9.87 53.45-3.62a.6.59 42.4 0 1 .8-.03q.8.67 1.96.75a1.6 1.6 0 0 0 1.09-2.86q-2.43-1.89-5.33-2.8a.63.63 0 0 0-.81.52q-.12.85.51 1.45a.53.53 0 0 1-.05.8c-14.15 10.74-35.75 7.9-50.98 1.74q-.51-.2-.51-.75v-.98a.87.87 0 0 0-1.44-.65c-2.15 1.88-4.72 6.76-1.48 8.67a1.26 1.26 0 0 0 1.89-.99l.06-.76q.06-.87.84-.49z" class="H"/><path d="M84.91 16.7c-9.88 3.81-18.8 6.31-27.04 13.52q-11.68 10.54-15.2 27.77-1.06-6.78 2-13.31c7.6-16.24 22.86-25.88 40.24-27.98z" class="F"/><path d="M57.87 30.22q-.33 2.72-2.15 4.75-.34.38-.24.88.28 1.5-.85 2.46a1.96 1.91 81.1 0 0-.56.79q-5.57 14.62-3.93 30.26c.2 1.93 1.15 4.07 1.24 6.16q.12 2.84.63 4.2c.94 2.55 3.47 5.21 2 7.53q-7.42-5.35-9.99-14.01-2.45-8.26-1.35-15.25 3.52-17.23 15.2-27.77z" class="D"/><path d="M121.98 46.57c8.1 8.81 2.9 19.27-8.19 21.4-20.14-4.65-9.18-30.78 8.19-21.4zm.35 4.31a3.49 3.49 0 1 0-6.98 0 3.49 3.49 0 1 0 6.98 0zm-42.74-3.47c6.81 9.51 1.19 20.73-10.37 20.18-18.03-4.72-7.86-30.23 10.37-20.18zm.26 4.12a3.3 3.3 0 0 0-6.6 0 3.3 3.3 0 0 0 6.6 0z"/><path d="M113.79 67.97c11.09-2.13 16.29-12.59 8.19-21.4q4.46 1.05 6.54 5.18 1.66 3.33.86 7.66-2.16 11.57-15.59 8.56z" class="F"/><circle cx="118.84" cy="50.88" r="3.49" class="H"/><path d="M69.22 67.59c11.56.55 17.18-10.67 10.37-20.18q9.9 5.36 5.92 14.68c-2.89 6.77-9.75 10.37-16.29 5.5z" class="F"/><circle cx="76.55" cy="51.53" r="3.3" class="H"/><path d="M26.07 58.59a.61.61 0 0 1 1.2-.17l.53 2.01q.19.72-.44.32-1.26-.79-1.29-2.16zm127.42 3.34q-.04-.24.04-.54a.32.31-54 0 1 .56-.09q.71.99.34 2.34-.19.69-.56.08-.25-.41-.24-.97.01-.08-.14-.82zm2.52-.06a.31.31 0 0 1 .11-.37l.3-.22a.48.48 0 0 1 .72.18q.59 1.29.34 2.78-.16.99-.52.06l-.95-2.43zm-5.04.34q-.3-1.01.52-.36 1.04.81.36 2.44-.15.36-.26-.01l-.62-2.07z" class="I"/><ellipse cx="0" cy="0" transform="matrix(.52101 .853551 -.853551 .52101 160.48 63.28)" rx="1.15" ry=".54" class="F"/><path d="M63.53 87.98l-.06.76a1.26 1.26 0 0 1-1.89.99c-3.24-1.91-.67-6.79 1.48-8.67a.87.87 0 0 1 1.44.65v.98q0 .55.51.75c15.23 6.16 36.83 9 50.98-1.74a.53.53 0 0 0 .05-.8q-.63-.6-.51-1.45a.63.63 0 0 1 .81-.52q2.9.91 5.33 2.8a1.6 1.6 0 0 1-1.09 2.86q-1.16-.08-1.96-.75a.6.59 42.4 0 0-.8.03c-13.66 13.49-37.74 11.35-53.45 3.62q-.78-.38-.84.49z"/><path d="M57.36 91.38c14.38 8.88 34.22 12.57 50.61 7.1q.43.13.47.29a1 .98-13.9 0 1-.74 1.2q-27.18 6.64-51.06-7.72-.52-.32.04-.56l.68-.31z" class="D"/><ellipse cx="0" cy="0" transform="matrix(.997053 -.076719 .076719 .997053 89.39 116.7)" rx="5.4" ry=".4" class="I"/><path d="M95.5 119.34l-.03.31-8.82 1.65q-.54.09-.61-.44l-.04-.29a.37.37 0 0 1 .26-.41q4.44-1.37 9.24-.82z" class="D"/><path d="M95.5 119.34q1.16-.24 2.23-.05.82.15.02.39-.98.29-2.28-.03l.03-.31z" class="I"/><g class="D"><path d="M86.4 123.71a.16.16 0 0 1 .14-.18l.19-.03a11.01.54-8.4 0 1 10.97-1.07v.04a11.01.54-8.4 0 1-10.81 2.14l-.19.03a.16.16 0 0 1-.18-.13l-.12-.8z"/><ellipse cx="0" cy="0" transform="matrix(.986856 -.161604 .161604 .986856 90.53 126.93)" rx="7.87" ry=".49"/></g><path d="M96.08 130q-.29-.34-1.37-.31 2.03-.42 4.01-.12.98.15.01.36-1.21.26-2.65.07z" class="I"/><g class="H"><path d="M94.71 129.69q1.08-.03 1.37.31-4.51 1.31-9.23 1.83a.45.45 0 0 1-.11-.89l7.97-1.25z"/><ellipse cx="0" cy="0" transform="matrix(.992966 -.118404 .118404 .992966 91.92 134.21)" rx="5.59" ry=".54"/></g><ellipse cx="0" cy="0" transform="matrix(.990509 -.137445 .137445 .990509 90.83 137.85)" rx="7.71" ry=".53" class="D"/><g class="H"><ellipse cx="0" cy="0" transform="matrix(.990509 -.137445 .137445 .990509 92.67 141.27)" rx="6.74" ry=".49"/><rect x="-6.26" y="-.43" transform="matrix(.991445 -.130526 .130526 .991445 92.53 144.76)" width="12.52" height=".86" rx=".33"/><ellipse cx="0" cy="0" transform="matrix(.991894 -.127065 .127065 .991894 91.43 148.3)" rx="6.57" ry=".53"/></g><g class="D"><ellipse cx="0" cy="0" transform="matrix(.993373 -.114937 .114937 .993373 91.95 151.59)" rx="6.08" ry=".49"/><ellipse cx="0" cy="0" transform="matrix(.990748 -.135716 .135716 .990748 92.04 154.8)" rx="5.51" ry=".52"/><ellipse cx="0" cy="0" transform="matrix(.990268 -.139173 .139173 .990268 90.33 158.23)" rx="6.53" ry=".54"/></g><ellipse cx="0" cy="0" transform="matrix(.991445 -.130526 .130526 .991445 91.94 161.16)" rx="4.66" ry=".39" class="F"/><g class="D"><ellipse cx="0" cy="0" transform="matrix(.994881 -.101056 .101056 .994881 92.53 163.88)" rx="6.08" ry=".59"/><ellipse cx="0" cy="0" transform="matrix(.995884 -.090633 .090633 .995884 91.89 167.61)" rx="5.17" ry=".54"/></g><ellipse cx="0" cy="0" transform="matrix(.992115 -.125333 .125333 .992115 92.73 170.61)" rx="4.25" ry=".53" class="F"/><ellipse cx="0" cy="0" transform="matrix(.994338 -.106264 .106264 .994338 93.49 173.75)" rx="3.23" ry=".67" class="D"/><ellipse cx="0" cy="0" transform="matrix(.999998 .001745 -.001745 .999998 93.83 177.18)" rx="2.59" ry=".59" class="I"/><ellipse cx="0" cy="0" transform="matrix(.999507 .031411 -.031411 .999507 93.69 180.37)" rx="1.77" ry=".63" class="F"/></svg>