<svg width="90.052" height="94" version="1.1" viewBox="0 0 183.11 191" xmlns="http://www.w3.org/2000/svg">
	<g transform="matrix(1.2181 0 0 1.1426 -14.224 -7.324)">
		<g stroke="#000">
			<path d="m38.411 51.807c-0.39333 0-0.76134 0.09005-1.108 0.27005-1.0267 0.52-2.1203 0.67004-3.2803 0.4567-0.31333-0.06-0.58349 0.02354-0.81016 0.2502l-0.47259 0.48053c-0.20667 0.2-0.452 0.28881-0.73867 0.26211-2.33-0.23-4.2387 0.80006-6.0087 1.1001-4.14 0.68667-8.3085 1.1969-12.502 1.5369-0.3947 0.02791-0.58012 0.50145-0.30977 0.7903 1.21 1.35 2.5924 0.5813 3.8324 0.6513 3.3 0.16667 6.5131 0.74612 9.6464 1.7395 2.54 0.8 5.8127 1.1321 8.5027 2.4821 0.29333 0.14 0.59738 0.1935 0.91738 0.1668l3.3121-0.28991c0.38155-0.03463 0.71879 0.24966 0.75059 0.63144zm96.766 0-1.7315 10.528c0.0318-0.38179 0.36904-0.66608 0.75059-0.63144l3.3121 0.28991c0.32 0.0267 0.62405-0.0268 0.91738-0.1668 2.69-1.35 5.9627-1.6821 8.5027-2.4821 3.1333-0.99333 6.3504-1.5728 9.6504-1.7395 1.24-0.07 2.6184 0.6987 3.8284-0.6513 0.27035-0.28885 0.0849-0.76239-0.30977-0.7903-4.1933-0.34-8.3618-0.85024-12.502-1.5369-1.77-0.3-3.6787-1.3301-6.0087-1.1001-0.28667 0.0267-0.532-0.06211-0.73867-0.26211l-0.47259-0.48053c-0.22667-0.22666-0.49683-0.3102-0.81016-0.2502-1.16 0.21334-2.2537 0.06329-3.2803-0.4567-0.34667-0.18-0.71468-0.27005-1.108-0.27005z" fill="#bdbcb9" stroke-width="2.8467" />
			<circle cx="86.794" cy="57.07" r="49.194" fill="#9e9d9a" stroke-width="3.05" />
			<ellipse cx="86.794" cy="57.07" rx="39.356" ry="39.356" fill="#f9f9f8" stroke-width="2.2367" />
		</g>
		<path d="m78.223 105.06c-0.24887 1.7911-0.49774 3.5822-0.74661 5.3732-2.0905-0.22735-7.7238-0.0712-5.6728 3.179 2.342 1.4339 6.351 1.1139 6.8491 4.5748 0.7105 2.4764 0.0638 6.9286-3.1967 6.71-2.2889-1.0601-6.9723 1.605-3.5055 3.4455 2.6397 0.92943 6.4942 1.6509 6.6085 5.1735 0.62956 3.5632-2.9156 4.3946-5.6321 4.0368-3.4503-0.13706-2.6724 4.0926 0.32498 4.0089 3.0164 0.33105 6.5824 2.8272 5.2302 6.226-1.233 3.9741-6.2185 1.6417-8.2357 3.9435-1.0527 3.3828 3.3064 2.9773 5.4223 3.5465 2.3789 0.29297 5.2569 1.3325 5.6256 4.0506 1.1472 3.4966 2.2926 7.0064 3.8456 10.349-0.92199 3.103 4.6249 6.0143 5.1776 1.9835 1.6013-4.3674 3.3607-8.735 4.8167-13.178 0.8402-2.839 4.3519-3.0799 6.836-3.4424 2.4947 0.3383 6.1747-2.5294 2.7218-4.283-2.6904-0.46146-6.8334 0.14156-7.1669-3.806-0.72665-4.2469 3.988-4.95 6.9187-5.9575 3.1362-2.0914-1.2524-4.2473-3.4635-3.5495-3.0504 0.5145-4.316-3.2863-2.9304-5.5074 0.93988-2.4306 3.5249-2.7874 5.696-3.185 2.8621-0.85053 1.5071-4.8058-1.2756-3.5174-2.8115 0.34053-5.8276-1.6828-5.1582-4.7277-1.0118-3.4373 2.6499-6.3638 5.8868-5.9851 3.0413-0.89909 1.0176-5.3077-1.7174-3.6497-3.1831 0.23996-3.3042-3.6864-4.1968-5.344-3.3141-1.178-6.7633 0.77822-10.17 0.0753-2.9699-0.067-5.928-0.35949-8.8915-0.54318z" />
		<path d="m89.933 169.59a1.77 0.63 1.8 0 1-1.7889 0.57409 1.77 0.63 1.8 0 1-1.7493-0.68529 1.77 0.63 1.8 0 1 1.7889-0.57409 1.77 0.63 1.8 0 1 1.7493 0.68529zm1.0119-3.268a2.59 0.59 0.099981 0 1-2.591 0.58547 2.59 0.59 0.099981 0 1-2.589-0.59451 2.59 0.59 0.099981 0 1 2.591-0.58549 2.59 0.59 0.099981 0 1 2.589 0.59453zm0.23331-3.7521a0.67 3.23 83.9 0 1-3.1405 1.0094 0.67 3.23 83.9 0 1-3.2829-0.32298 0.67 3.23 83.9 0 1 3.1405-1.0094 0.67 3.23 83.9 0 1 3.2829 0.32298zm1.1437-3.3296a0.53 4.25 82.8 0 1-4.1501 1.0585 0.53 4.25 82.8 0 1-4.2829 7e-3 0.53 4.25 82.8 0 1 4.1501-1.0585 0.53 4.25 82.8 0 1 4.2829-7e-3zm0.27096-3.115a0.54 5.17 84.8 0 1-5.0998 1.0064 0.54 5.17 84.8 0 1-5.1977-0.0692 0.54 5.17 84.8 0 1 5.0998-1.0064 0.54 5.17 84.8 0 1 5.1977 0.0692zm1.5412-3.8765a0.59 6.08 84.2 0 1-5.9893 1.2014 0.59 6.08 84.2 0 1-6.1085 0.0275 0.59 6.08 84.2 0 1 5.9893-1.2014 0.59 6.08 84.2 0 1 6.1085-0.0274zm-1.8393-2.7137a0.39 4.66 82.5 0 1-4.5692 0.99491 0.39 4.66 82.5 0 1-4.671 0.22159 0.39 4.66 82.5 0 1 4.5692-0.99492 0.39 4.66 82.5 0 1 4.671-0.22158zm0.77526-3.0507a0.54 6.53 82 0 1-6.3913 1.4436 0.54 6.53 82 0 1-6.5416 0.37405 0.54 6.53 82 0 1 6.3913-1.4435 0.54 6.53 82 0 1 6.5416-0.37406zm0.7029-3.2692a0.52 5.51 82.2 0 1-5.3884 1.263 0.52 5.51 82.2 0 1-5.5296 0.2326 0.52 5.51 82.2 0 1 5.3884-1.263 0.52 5.51 82.2 0 1 5.5296-0.2326zm0.49072-3.161a0.49 6.08 83.4 0 1-5.9834 1.1856 0.49 6.08 83.4 0 1-6.096 0.21207 0.49 6.08 83.4 0 1 5.9834-1.1856 0.49 6.08 83.4 0 1 6.096-0.21207zm-0.58284-3.4255a0.53 6.57 82.7 0 1-6.4494 1.3605 0.53 6.57 82.7 0 1-6.5841 0.30912 0.53 6.57 82.7 0 1 6.4494-1.3605 0.53 6.57 82.7 0 1 6.5841-0.30911zm-11.352-2.3579 11.759-1.548c0.18126-0.0239 0.34639 0.10283 0.37025 0.2841l0.02611 0.19829c0.02386 0.18126-0.10285 0.34639-0.2841 0.37025l-11.759 1.548c-0.18126 0.0239-0.34639-0.10283-0.37025-0.2841l-0.0261-0.19828c-0.02386-0.18126 0.10285-0.34639 0.2841-0.37025zm12.751-4.7637a0.49 6.74 82.1 0 1-6.6087 1.4117 0.49 6.74 82.1 0 1-6.7434 0.44103 0.49 6.74 82.1 0 1 6.6087-1.4117 0.49 6.74 82.1 0 1 6.7434-0.44103zm0.01942-3.9128a0.53 7.71 82.1 0 1-7.564 1.5847 0.53 7.71 82.1 0 1-7.7097 0.53474 0.53 7.71 82.1 0 1 7.564-1.5847 0.53 7.71 82.1 0 1 7.7097-0.53473zm-1.175-3.0631a0.54 5.59 83.2 0 1-5.4867 1.1981 0.54 5.59 83.2 0 1-5.6146 0.12569 0.54 5.59 83.2 0 1 5.4867-1.1981 0.54 5.59 83.2 0 1 5.6146-0.12568zm-2.7612-3.8577q1.08-0.03 1.37 0.31-4.51 1.31-9.23 1.83a0.45 0.45 0 0 1-0.11-0.89001zm5.1439-3.3913a0.49 7.87 80.7 0 1-7.6874 1.7554 0.49 7.87 80.7 0 1-7.8457 0.78826 0.49 7.87 80.7 0 1 7.6874-1.7554 0.49 7.87 80.7 0 1 7.8457-0.78827zm-13.51-1.5638a0.16 0.16 0 0 1 0.14-0.18l0.19-0.03a0.54 11.01 81.6 0 1 10.97-1.07l4.2e-5 0.04a0.54 11.01 81.6 0 1-10.81 2.14l-0.19 0.0299a0.16 0.16 0 0 1-0.18-0.13zm8.8695-4.5237-0.03 0.31-8.82 1.65q-0.54 0.09-0.61-0.44l-0.04-0.29a0.37 0.37 0 0 1 0.26-0.40999q4.44-1.37 9.24-0.82001z" fill="#bdbcb9" />
		<g transform="matrix(.87836 0 0 .87836 11.653 11.437)">
			<path d="m61.489 80.658-0.07898 0.69648a1.1606 1.0927 86.775 0 1-1.6732 0.82767c-2.7402-1.8993-0.33962-6.2755 1.5905-7.9104a0.80136 0.75449 86.775 0 1 1.2249 0.66118l-0.0348 0.90149q-0.01953 0.50594 0.41538 0.71232c12.981 6.3355 31.6 9.8968 44.245 0.63871a0.48819 0.45963 86.775 0 0 0.0717-0.73372q-0.52471-0.57961-0.39053-1.3562a0.5803 0.54635 86.775 0 1 0.72047-0.44276q2.4811 0.96448 4.52 2.8098a1.4738 1.3876 86.775 0 1-1.0462 2.583q-1.0025-0.12454-1.6721-0.77601a0.54915 0.51493 79.256 0 0-0.6944-0.0075c-12.318 11.809-33.111 8.783-46.452 0.98215q-0.66252-0.38382-0.7454 0.41385z" stroke-width=".89376" />
			<ellipse cx="65.7523" cy="47.9005" rx="12.708" ry="12.708" />
			<circle cx="70.1933" cy="42.7335" r="3.49" fill="#f9f9f8" />
			<ellipse cx="105.3403" cy="47.9005" rx="12.708" ry="12.708" />
			<circle cx="109.7813" cy="42.7335" r="3.49" fill="#f9f9f8" />
		</g>
	</g>
</svg>