<svg viewBox="0 0 58.977 27.418" xml:space="preserve" xmlns="http://www.w3.org/2000/svg">
	<g stroke="#9e9d9a" stroke-width="5">
		<path d="M48.382 5c-.184 0-.4.004-.648.012-.624.032-1 .048-1.127.048-.064 0-.169-.007-.313-.023s-.256-.025-.336-.025c-.944.048-1.52.081-1.728.097-.752.08-1.28.248-1.584.504a.412.412 0 0 0-.143.336c0 .096.007.199.024.31.24.273.559.409.959.409.224 0 .544-.047.96-.143.48-.096.809-.152.985-.168a.3.3 0 0 1 .142.264c.128 3.584.194 5.12.194 4.607v1.608a1 1 0 0 0 .047.24.796.796 0 0 1 .048.24v1.465c0 .656.025 1.08.073 1.272.016.128.023.488.023 1.08 0 .032.008.08.024.144a.434.434 0 0 1 .048.12c.032.288.047.48.047.576-.016.56-.006.959.026 1.199l-1.489.096c-.656.048-1.135.128-1.44.24s-.456.32-.456.625c0 .176.185.32.553.431.256.08.504.12.744.12.384 0 .936-.056 1.656-.168.736-.112 1.271-.176 1.607-.192.112 0 .431-.032.96-.096.4-.048.728-.055.984-.023.192.016.377.024.553.024.8 0 1.199-.265 1.199-.793 0-.576-.35-.815-1.055-.72-.208.033-.4.072-.576.12-.672.064-1.137.105-1.393.121-.224.016-.343.016-.36 0-.16-.64-.249-1.433-.265-2.377-.016-1.52-.047-2.503-.095-2.951V12.38c.352-.112 1.215-.29 2.591-.53 1.168-.191 2.034-.471 2.594-.84.848-.543 1.367-1.351 1.559-2.423.016-.128-.016-.479-.096-1.055-.048-.288-.248-.609-.6-.96-.56-.545-1.087-.88-1.583-1.009-1.216-.32-2.168-.504-2.856-.552A7.153 7.153 0 0 0 48.382 5zm-10.442.707-.719.047c-.976.064-2.097.217-3.361.457-.448.08-.672.287-.672.623 0 .048.01.104.026.168.208.176.366.264.478.264.304 0 .754-.088 1.346-.264s1.04-.264 1.344-.264c.176 0 .343.017.503.05a819.801 819.801 0 0 1-1.56 7.485 33.523 33.523 0 0 0-.48 2.809c-1.185-.08-1.817-.136-1.897-.168-.368-.064-.655-.08-.863-.049-.384.064-.577.29-.577.674 0 .368.497.592 1.489.672 1.2.096 1.927.16 2.183.191.512.064.802.103.866.12a.92.92 0 0 0 .6-.215.752.752 0 0 0 .263-.577c0-.096-.017-.168-.049-.216s-.151-.12-.36-.215c-.191-.096-.286-.169-.286-.217a.95.95 0 0 1 .095-.217c.064-.416.152-.64.264-.672 1.92-.592 3.304-.879 4.152-.863.544 1.808.807 2.752.791 2.832a58.84 58.84 0 0 1-.912.6c-.432.288-.646.536-.646.744 0 .144.063.273.191.385s.264.168.408.168c.448-.016.76-.09.936-.217.96-.736 1.999-1.335 3.119-1.8l.72-.288c.225-.128.33-.335.313-.623-.032-.192-.073-.314-.121-.362a.857.857 0 0 0-.55-.214c-.177 0-.505.119-.985.359s-.823.376-1.031.408a280.471 280.471 0 0 0-1.37-3.504l-1.08-2.472c-.48-1.184-.815-2.024-1.007-2.52-.304-.8-.504-1.367-.6-1.703-.24-.896-.561-1.368-.961-1.416zm-25.521.35a1.591 1.591 0 0 0-.379.088c-.24.08-.352.232-.336.456.016.304.031.504.047.6-.048.464-.08.807-.096 1.031a4.858 4.858 0 0 1-.24-.214c-.56-.96-1.431-1.442-2.615-1.442-.608 0-1.185.136-1.729.408-.224.112-.406.336-.55.672l-.264.842c-.352 1.12-.53 1.83-.53 2.135v1.392c0 .736.353 1.352 1.057 1.848.64.464 1.336.688 2.088.672.144 0 .448.032.912.096.864.128 1.456.295 1.776.503.579.387.922.937 1.035 1.645v1.004c.002.012.001.015.004.027-.053.3-.158.538-.319.71-.56.607-1.552.982-2.976 1.126-.496.048-1.032-.254-1.608-.91-.672-.768-1.007-1.721-1.007-2.857-.08-.272-.314-.409-.698-.409-.592 0-.918.224-.982.672 0 .032.039.13.119.29.032.063.032.246 0 .55-.032.384-.04.73-.023 1.033a.55.55 0 0 0-.073.215v1.32c.048.112.073.305.073.577 0 .128-.01.327-.026.6s-.023.473-.023.6c0 .72.184 1.08.552 1.08.24 0 .56-.128.96-.384.063-.336.073-.769.025-1.297-.064-.72-.098-1.15-.098-1.295.896.96 1.794 1.384 2.69 1.272 1.67-.213 2.905-.62 3.71-1.223l.083.461c.08.144.152.258.216.338.192.624.704 1.103 1.536 1.44a5.894 5.894 0 0 0 2.185.408c.576 0 1.07-.073 1.486-.217 1.008-.352 1.658-.68 1.946-.985.592-.624.952-1.624 1.08-3 .08-.816.112-1.543.096-2.183 0-.112-.08-.217-.24-.313-.16-.112-.297-.168-.409-.168-.608.048-.912.272-.912.672 0 .08.007.16.023.24.144.625.13 1.417-.046 2.377-.32 1.76-1.432 2.6-3.336 2.52a2.794 2.794 0 0 1-1.176-.336c-.8-.416-1.272-1.24-1.416-2.473a43.318 43.318 0 0 1-.072-1.53c-.044-1.71.155-3.144.6-4.302.32-.816.743-1.222 1.27-1.222.449 0 .962.112 1.538.336s1.048.487 1.416.79c.272.369.447.665.527.89a.597.597 0 0 0 .264.072c.16.128.456.118.888-.026.16-.048.272-.191.336-.431-.016.048-.032-.072-.048-.36l.048-1.656c.032-1.024.047-1.615.047-1.775-.048-.288-.318-.432-.814-.432s-.73.35-.697 1.055c.032.512.04.792.025.84-.016.352-.033.551-.049.6-.112 0-.192-.016-.24-.048a6.207 6.207 0 0 0-3.215-.863 4.92 4.92 0 0 0-1.01.096c-.672.144-1.287.959-1.847 2.447-.064.16-.145.593-.24 1.297-.018.121-.024.196-.038.303-.704-.545-1.717-.856-3.037-.934-.688-.032-1.167-.105-1.44-.217-.447-.176-.751-.512-.911-1.008a11.67 11.67 0 0 1-.192-1.033c.016.032.031-.039.047-.215.048-.48.17-1.049.361-1.705.128-.448.216-.75.264-.91.16-.48.576-.696 1.248-.648.464.032.863.392 1.2 1.08.351.688.609 1.216.769 1.584.208.72.295 1.294.263 1.726 0-.048.047.081.143.385.192.112.394.168.602.168.4 0 .638-.151.718-.455.032-.448.032-.8 0-1.057.176-2.016.28-3.32.313-3.912.016-.352-.016-.624-.096-.816-.098-.238-.276-.348-.533-.328zm35.027.156c3.104.016 4.8.704 5.088 2.064.032.176.008.447-.072.815-.192.832-.752 1.335-1.68 1.511-1.648.32-2.6.481-2.855.481a6.855 6.855 0 0 1-.672.072c-.112-2.08-.168-3.679-.168-4.799.16-.096.279-.144.359-.144zm-22.094.27a1.465 1.465 0 0 0-.178.005c-.816.096-1.64.199-2.472.31-1.328.225-2.007.529-2.04.913-.031.416.385.625 1.249.625.224-.048.392-.08.504-.096.208-.032.344-.017.408.047.032 1.056.12 2.273.263 3.649.048.432.056.687.024.767-.352-.08-.64.056-.863.408-.016.144-.04.225-.073.24v.073c.064.224.215.375.455.455.096.032.289.056.577.072-.016.208 0 .624.048 1.248.16 2.16.248 3.481.264 3.961a.412.412 0 0 1-.096.264c-.48.064-.96.12-1.44.168-.591.112-.864.43-.816.959.208.256.583.385 1.127.385.224 0 .77-.073 1.633-.217.752-.112 1.312-.19 1.68-.239.736-.192 1.103-.505 1.103-.937 0-.304-.119-.496-.359-.576-.304-.096-.688-.055-1.152.12a.466.466 0 0 1-.36 0 43.097 43.097 0 0 0-.12-2.16c0-.095-.016-.27-.048-.527a3.49 3.49 0 0 1-.048-.504v-2.328c.704-.192 1.168-.32 1.392-.384a.601.601 0 0 1 .24 0c.576.224.968.375 1.176.455.672.272 1.088.865 1.248 1.777.288.912.512 2.175.672 3.791.064.592.305 1.137.72 1.633.465.56.976.815 1.536.767.656-.064 1.145-.2 1.465-.408.272-.176.559-.504.863-.984.304-.496.416-.879.336-1.15-.08-.289-.287-.434-.623-.434-.32 0-.592.104-.816.312-.16.304-.233.545-.217.721-.112.48-.416.704-.912.672-.112-.016-.28-.12-.504-.313-.208-.208-.32-.368-.336-.48-.144-.48-.312-1.575-.504-3.287-.144-1.296-.424-2.272-.84-2.928-.144-.224-.416-.481-.816-.77-.016-.015-.024-.047-.024-.095 1.104-.528 1.849-1.127 2.233-1.799.112-.176.175-.473.191-.889.032-.448.015-.76-.049-.935-.432-1.36-1.471-2.097-3.119-2.21l-1.057-.071a36.12 36.12 0 0 0-1.525-.077zm-.273 1.253c1.504-.016 2.494.04 2.974.168 1.088.288 1.633.975 1.633 2.063 0 .304-.073.528-.217.672-.768.8-1.59 1.2-2.47 1.2-.465 0-.754.016-.866.048a2.232 2.232 0 0 0-.336.265c-.528.144-.927.223-1.199.239l-.12-1.584-.097-1.608a1.85 1.85 0 0 1 .073-.672c.048-.16.04-.36-.024-.6.288-.127.505-.19.649-.19zm12.838 1.067a253.65 253.65 0 0 1 1.296 2.879c.464 1.152.808 1.952 1.032 2.4 0 .032-.049.08-.145.144-.816.144-1.943.352-3.383.624z"/>
		<path d="M36.451 3.342c-.95.087-1.93.202-3.04.412-.518.094-1.153.282-1.755.84-.198.183-.174.486-.316.732-.95-.676-2.09-1.11-3.235-1.19h-.002l-.312-.02-2.41-.133c-.155-.002-.258-.006-.512.025-.823.097-1.656.2-2.5.315l-.041.005-.041.006c-.778.132-1.427.274-2.111.58-.343.154-.71.344-1.106.727-.177.171-.246.56-.402.834-.511.239-.99.581-1.29 1.033-.088.134-.093.252-.158.383-.46-.073-.916-.182-1.386-.182-.109 0-.215.027-.323.031.005-.081.03-.334.034-.404v-.021c.025-.559.024-1.138-.286-1.885a3.127 3.127 0 0 0-1.205-1.434c-.51-.314-1.059-.36-1.54-.365-.089 0-.201-.072-.282-.066h-.004c-.12.009-.263.025-.418.056l-.023.006-.026.006c-.135.03-.35.105-.582.191-.288.104-.597.395-.906.649-.496-.145-.972-.397-1.475-.397-.98 0-1.968.234-2.845.672-.93.465-1.443 1.254-1.73 1.924l-.052.117-.3.963c-.37 1.176-.645 1.607-.645 2.881v1.393c0 .608.239 1.19.49 1.753-.63.531-1.086 1.336-1.183 2.02l-.026.176v.178c0 .619.071.532.13.625v.007c-.034.394-.034.765-.024 1.135-.021.145-.082.106-.082.32v1.834l.068.159c-.002.061-.004.154-.015.357-.018.299-.03.523-.03.748 0 .574.014 1.168.414 1.95.4.78 1.64 1.63 2.639 1.63 1.134 0 1.719-.403 2.307-.78l1.58-.945c.421 0 1.746-.334 2.37-.5.565.592 1.226 1.07 1.929 1.354l.007.004.01.004c.985.39 2.04.582 3.104.582.786 0 1.556-.095 2.304-.354l.004-.002h.002c.805-.28 1.455-.566 2.1-1.002.332.064.677.157.969.157.75 0 1.144-.1 2.002-.244l.03-.004a100.5 100.5 0 0 1 1.604-.229l.157-.02.152-.038c.568-.148 1.15-.379 1.742-.86.085.12.081.29.174.4.802.964 2.228 1.782 3.666 1.659l.014-.002.015-.002c.878-.086 1.707-.23 2.584-.801.785-.51 1.205-1.098 1.614-1.742l.02-.031c.108-.178.193-.414.3-.616.468-.052.903-.24 1.322-.472.195.54.47 1.038.813 1.338h.002c.479.419 1.26.787 2.053.787h.044l.045-.002a6.57 6.57 0 0 0 .926-.086c.35.222.68.397.961.482a5 5 0 0 0 1.48.23c.628 0 1.255-.074 2.042-.197.69-.104 1.194-.157 1.341-.164l-.119.002c.533-.008 1.14-.088 1.635-.138l.05.007.051.004c.26.022.514.032.76.032.676 0 1.44-.058 2.28-.614s1.42-1.785 1.42-2.68c0-.795-.41-2.032-1.356-2.677-.853-.581-1.652-.59-2.305-.522-.01-.813-.037-1.307-.062-1.822.241-.046.194-.046.476-.096 1.353-.222 2.492-.519 3.551-1.212 1.397-.903 2.366-2.455 2.656-4.076l.012-.065.01-.066c.068-.545.018-.654-.004-.895a17.36 17.36 0 0 0-.098-.814l-.004-.034-.005-.033c-.184-1.1-.742-1.763-1.297-2.318l-.014-.012-.014-.013c-.754-.733-1.596-1.35-2.7-1.635-1.292-.34-2.338-.56-3.308-.627h-.005c-.084-.006-.169-.005-.25-.008l-.04-.01h-.335c-.218 0-.459.005-.729.014h-.023l-.024.002c-.617.032-1.09.045-1 .045.129 0 .06.003-.035-.008-.179-.02-.338-.041-.613-.041h-.063l-.064.004c-.952.048-1.5.079-1.793.101l-.035.002-.037.004c-.993.106-1.942.252-2.922 1.074-.27.225-.454.548-.621.868-.434-.575-1.176-1.22-2.184-1.34l-.113-.014z"/>
	</g>
	<path d="M68.849 17.179c-.184 0-.4.004-.648.012-.624.032-1 .049-1.127.049-.064 0-.169-.008-.313-.024s-.256-.025-.336-.025c-.944.048-1.52.081-1.728.097-.752.08-1.28.248-1.584.504a.412.412 0 0 0-.143.336c0 .096.008.199.024.31.24.273.559.409.959.409.224 0 .545-.047.96-.143.48-.096.809-.152.985-.168a.3.3 0 0 1 .142.264c.128 3.584.194 5.12.194 4.608v1.607a1 1 0 0 0 .047.24.796.796 0 0 1 .048.24v1.465c0 .656.025 1.08.073 1.272.016.128.023.488.023 1.08 0 .032.008.08.024.144a.436.436 0 0 1 .048.12c.032.288.047.48.047.576-.016.56-.006.959.026 1.199l-1.489.096c-.656.048-1.135.128-1.439.24s-.457.32-.457.625c0 .176.185.32.553.431.256.08.504.12.744.12.384 0 .936-.056 1.656-.168.736-.112 1.272-.176 1.608-.192.112 0 .43-.031.959-.095.4-.048.728-.056.984-.024.192.016.377.024.553.024.8 0 1.199-.265 1.199-.793 0-.576-.35-.815-1.055-.72-.208.033-.4.072-.576.12-.672.064-1.137.105-1.393.121-.224.016-.343.016-.359 0-.16-.64-.25-1.433-.266-2.377-.016-1.52-.047-2.503-.095-2.951V24.56c.352-.112 1.216-.29 2.592-.53 1.168-.191 2.033-.471 2.593-.84.848-.543 1.367-1.351 1.559-2.423.016-.128-.016-.479-.096-1.055-.048-.288-.247-.609-.6-.96-.56-.545-1.087-.88-1.583-1.009-1.216-.32-2.168-.504-2.856-.552a7.156 7.156 0 0 0-.457-.012zm-10.441.707-.719.047c-.976.064-2.097.217-3.361.457-.448.08-.672.287-.672.623 0 .048.01.104.026.168.207.176.366.264.478.264.304 0 .754-.088 1.346-.264s1.04-.264 1.343-.264c.176 0 .344.017.504.05a820.91 820.91 0 0 1-1.56 7.485 33.523 33.523 0 0 0-.48 2.809c-1.185-.08-1.817-.136-1.897-.168-.368-.064-.655-.08-.863-.049-.385.064-.577.29-.577.674 0 .368.497.592 1.489.672 1.2.096 1.927.16 2.183.191.512.064.801.103.865.12a.92.92 0 0 0 .6-.215.752.752 0 0 0 .264-.577c0-.096-.017-.168-.05-.216s-.15-.12-.358-.215c-.192-.096-.287-.169-.287-.217a.946.946 0 0 1 .095-.217c.064-.416.152-.64.264-.672 1.92-.592 3.304-.879 4.152-.863.544 1.808.807 2.752.791 2.832a58.84 58.84 0 0 1-.912.6c-.432.288-.646.536-.646.744 0 .144.063.273.191.385s.264.168.408.168c.448-.016.76-.09.936-.217.96-.736 1.999-1.335 3.119-1.8l.72-.288c.225-.128.33-.335.313-.623-.032-.192-.073-.313-.121-.361a.857.857 0 0 0-.55-.215c-.177 0-.505.119-.985.359s-.823.376-1.031.408a279.85 279.85 0 0 0-1.37-3.504l-1.08-2.472c-.48-1.184-.815-2.024-1.007-2.52-.304-.8-.504-1.367-.6-1.703-.24-.896-.561-1.368-.961-1.416zm-25.522.35a1.594 1.594 0 0 0-.379.088c-.24.08-.352.232-.336.456.016.304.031.504.047.6-.048.464-.08.807-.096 1.031a4.872 4.872 0 0 1-.24-.214c-.56-.96-1.431-1.442-2.615-1.442-.608 0-1.185.136-1.729.408-.224.112-.406.336-.55.672l-.264.842c-.352 1.12-.53 1.83-.53 2.135v1.392c0 .736.353 1.352 1.057 1.848.64.464 1.336.688 2.088.672.144 0 .448.032.912.096.864.128 1.456.295 1.776.503.58.387.922.937 1.035 1.645v1.004l.004.027c-.053.3-.158.538-.319.71-.56.607-1.552.982-2.976 1.126-.496.048-1.032-.254-1.608-.91-.672-.768-1.007-1.721-1.007-2.857-.08-.272-.314-.409-.698-.409-.592 0-.918.224-.982.672 0 .032.039.13.119.29.032.063.032.246 0 .55-.032.384-.04.73-.023 1.033a.55.55 0 0 0-.073.215v1.32c.048.112.073.305.073.577 0 .128-.01.327-.026.6s-.023.473-.023.6c0 .72.185 1.08.553 1.08.24 0 .559-.128.959-.384.064-.336.073-.769.025-1.297-.064-.72-.098-1.15-.098-1.295.896.96 1.794 1.384 2.69 1.272 1.67-.213 2.905-.62 3.71-1.223.022.125.066.359.083.461.08.144.152.258.216.338.192.624.704 1.103 1.536 1.44a5.894 5.894 0 0 0 2.185.408c.576 0 1.07-.073 1.486-.217 1.008-.352 1.658-.68 1.946-.984.592-.625.952-1.625 1.08-3 .08-.816.112-1.544.096-2.184 0-.112-.08-.217-.24-.313-.16-.112-.297-.168-.409-.168-.608.048-.912.272-.912.672 0 .08.007.16.023.24.144.625.13 1.418-.046 2.378-.32 1.76-1.432 2.599-3.336 2.519a2.795 2.795 0 0 1-1.176-.336c-.8-.416-1.272-1.24-1.416-2.473a43.673 43.673 0 0 1-.072-1.53c-.044-1.71.155-3.144.6-4.302.32-.816.743-1.222 1.27-1.222.449 0 .962.112 1.538.336s1.048.487 1.416.79c.272.369.447.665.527.89a.597.597 0 0 0 .264.072c.16.128.457.118.889-.026.16-.048.271-.191.335-.431-.016.048-.032-.072-.048-.36l.048-1.656c.032-1.024.047-1.615.047-1.775-.048-.288-.318-.432-.814-.432s-.73.35-.697 1.055c.032.512.04.791.025.84-.016.351-.033.551-.049.6-.112 0-.192-.016-.24-.048a6.207 6.207 0 0 0-3.215-.863 4.92 4.92 0 0 0-1.01.096c-.672.144-1.287.959-1.847 2.447-.064.16-.145.593-.24 1.297-.018.121-.024.196-.038.302-.704-.544-1.717-.855-3.037-.933-.688-.032-1.167-.105-1.44-.217-.447-.176-.751-.512-.911-1.008a11.67 11.67 0 0 1-.192-1.033c.016.032.031-.039.047-.215.048-.48.17-1.049.361-1.705.128-.448.216-.75.264-.91.16-.48.576-.696 1.248-.648.464.032.863.392 1.2 1.08.351.688.609 1.216.769 1.584.208.72.296 1.294.264 1.726 0-.048.046.081.142.385.192.112.394.168.602.168.4 0 .638-.151.718-.455.032-.448.032-.8 0-1.057.176-2.016.28-3.32.313-3.912.016-.352-.016-.624-.096-.816-.098-.238-.276-.348-.533-.328zm35.027.156c3.104.016 4.8.704 5.088 2.064.032.176.008.447-.072.815-.192.832-.752 1.335-1.68 1.511-1.648.32-2.6.481-2.856.481a6.855 6.855 0 0 1-.671.072c-.112-2.08-.168-3.679-.168-4.799.16-.096.279-.144.359-.144zm-22.094.27a1.463 1.463 0 0 0-.178.005c-.816.096-1.64.199-2.472.31-1.328.225-2.007.529-2.04.913-.031.416.385.625 1.249.625.224-.048.392-.08.504-.096.208-.032.344-.017.408.047a50.11 50.11 0 0 0 .263 3.649c.048.432.056.687.024.767-.352-.08-.64.056-.863.408-.016.144-.04.225-.073.24v.073c.064.224.215.375.455.455.096.032.289.056.577.072-.016.208 0 .624.048 1.248.16 2.16.248 3.481.264 3.961a.412.412 0 0 1-.096.264c-.48.064-.96.12-1.44.168-.591.112-.863.43-.815.959.208.256.582.385 1.126.385.224 0 .77-.073 1.633-.217.752-.112 1.312-.19 1.68-.239.736-.192 1.104-.505 1.104-.937 0-.304-.12-.496-.36-.576-.304-.096-.688-.055-1.152.12a.466.466 0 0 1-.36 0 43.097 43.097 0 0 0-.12-2.16c0-.095-.016-.27-.048-.527a3.49 3.49 0 0 1-.048-.504v-2.328c.704-.192 1.168-.32 1.392-.384a.602.602 0 0 1 .24 0c.576.224.968.375 1.176.455.672.272 1.088.865 1.248 1.777.288.912.512 2.175.672 3.791.064.592.305 1.137.72 1.633.465.56.976.815 1.536.767.656-.064 1.145-.2 1.465-.408.272-.176.56-.504.863-.984.304-.496.416-.878.336-1.15-.08-.289-.287-.434-.623-.434-.32 0-.592.104-.816.312-.16.304-.233.545-.217.721-.112.48-.416.704-.912.672-.112-.016-.28-.12-.504-.313-.208-.208-.32-.368-.336-.48-.144-.48-.312-1.575-.504-3.287-.144-1.296-.424-2.272-.84-2.928-.144-.224-.416-.481-.816-.77-.016-.015-.024-.047-.024-.095 1.104-.528 1.849-1.127 2.233-1.799.112-.176.175-.473.191-.889.032-.448.015-.76-.049-.935-.432-1.36-1.47-2.097-3.119-2.21l-1.057-.071a36.123 36.123 0 0 0-1.525-.077zm-.273 1.253c1.504-.016 2.494.04 2.974.168 1.088.288 1.633.975 1.633 2.063 0 .304-.073.528-.217.672-.768.8-1.59 1.2-2.47 1.2-.464 0-.754.016-.866.048a2.234 2.234 0 0 0-.336.265c-.528.144-.927.223-1.199.239l-.119-1.584c-.048-.784-.082-1.32-.098-1.608a1.85 1.85 0 0 1 .073-.672c.048-.16.04-.36-.024-.6.288-.127.505-.19.649-.19zm12.838 1.067a253.65 253.65 0 0 1 1.297 2.879c.464 1.152.807 1.952 1.03 2.4 0 .032-.048.08-.144.145-.816.144-1.943.35-3.383.623z" color="#000" fill="#fff" transform="translate(-20.473 -12.179)"/>
	<path d="M36.445 3.342c-.95.087-1.93.202-3.039.412-.52.094-1.154.282-1.756.84-.198.183-.174.486-.316.732-.95-.676-2.09-1.11-3.235-1.19h-.002l-.312-.02-2.41-.133c-.155-.002-.258-.006-.512.025-.823.097-1.656.2-2.5.315l-.082.011c-.778.132-1.427.274-2.111.58-.343.154-.71.344-1.106.727-.177.171-.246.56-.402.834-.51.239-.99.581-1.29 1.033-.088.135-.093.253-.158.383-.46-.072-.916-.182-1.386-.182-.108 0-.215.028-.323.032.006-.082.03-.335.034-.405v-.021c.025-.559.024-1.138-.286-1.885a3.126 3.126 0 0 0-1.205-1.434c-.51-.314-1.058-.36-1.54-.365-.089 0-.201-.072-.282-.066h-.004a3.45 3.45 0 0 0-.418.056l-.023.006-.026.006c-.135.03-.35.105-.582.191-.288.104-.597.395-.906.649-.496-.145-.972-.397-1.475-.397-.98 0-1.968.234-2.845.672-.93.465-1.443 1.254-1.73 1.924l-.052.117-.3.963c-.37 1.176-.645 1.607-.645 2.881v1.393c0 .608.239 1.19.49 1.754-.63.53-1.086 1.336-1.183 2.019l-.026.176v.178c0 .619.071.532.13.625v.007c-.033.394-.033.765-.024 1.135-.02.145-.082.106-.082.32v1.834l.068.159c-.002.061-.003.154-.015.357-.018.299-.03.523-.03.748 0 .574.014 1.168.414 1.95.4.78 1.64 1.63 2.64 1.63 1.133 0 1.718-.403 2.306-.78l1.58-.945c.421 0 1.746-.334 2.37-.5.565.592 1.226 1.07 1.929 1.354l.007.004.01.004c.985.39 2.04.582 3.104.582.786 0 1.556-.095 2.304-.354l.004-.002h.002c.806-.28 1.455-.566 2.1-1.002.332.064.677.157.969.157.75 0 1.144-.1 2.002-.244l.03-.004c.72-.107 1.266-.185 1.604-.229l.157-.02.152-.038c.568-.148 1.15-.379 1.742-.86.085.12.081.29.174.4.802.964 2.228 1.782 3.666 1.659l.014-.002.015-.002c.878-.086 1.707-.23 2.584-.801.786-.51 1.205-1.098 1.614-1.742l.02-.031c.108-.178.193-.414.3-.616.468-.052.903-.24 1.322-.472.195.54.47 1.038.813 1.338h.002c.479.419 1.26.787 2.053.787h.044l.045-.002c.297-.01.603-.03.926-.086.35.222.68.397.961.482.471.147.971.23 1.48.23.627 0 1.255-.074 2.042-.197.69-.104 1.194-.157 1.341-.164l-.119.002c.533-.008 1.14-.088 1.635-.138l.05.007.052.004c.26.022.513.032.76.032.675 0 1.44-.058 2.279-.614s1.42-1.785 1.42-2.68c0-.795-.41-2.032-1.356-2.677-.852-.581-1.652-.59-2.305-.522-.01-.813-.037-1.307-.062-1.822.242-.046.195-.046.476-.096 1.353-.222 2.492-.519 3.551-1.212 1.397-.903 2.366-2.455 2.656-4.076l.012-.065.01-.066c.068-.545.018-.654-.004-.895a17.24 17.24 0 0 0-.098-.814l-.004-.034-.005-.033c-.184-1.1-.742-1.763-1.297-2.318l-.014-.012-.014-.013c-.754-.733-1.596-1.35-2.7-1.635-1.292-.34-2.338-.56-3.307-.627H49c-.084-.006-.169-.005-.25-.008l-.04-.01h-.335c-.218 0-.459.005-.729.014h-.023l-.024.002c-.617.032-1.09.045-1 .045.129 0 .061.003-.035-.008-.179-.02-.338-.041-.613-.041h-.063l-.064.004c-.952.048-1.5.079-1.793.101l-.035.002-.037.004c-.993.106-1.942.252-2.922 1.074-.27.225-.454.548-.621.868-.434-.575-1.176-1.22-2.184-1.34l-.113-.014z" color="#000" fill="#bdbcb9"/>
	<path d="M48.376 5c-.184 0-.4.004-.648.012-.624.032-1 .048-1.127.048-.064 0-.169-.007-.313-.023s-.256-.025-.336-.025c-.944.048-1.52.081-1.728.097-.752.08-1.28.248-1.584.504a.412.412 0 0 0-.143.336c0 .096.007.199.023.31.24.273.56.409.96.409.224 0 .545-.047.96-.143.48-.096.809-.152.985-.168a.3.3 0 0 1 .142.264c.128 3.584.194 5.12.194 4.607v1.608a1 1 0 0 0 .047.24.796.796 0 0 1 .048.24v1.465c0 .656.025 1.08.073 1.272.016.128.023.488.023 1.08 0 .032.008.08.024.144a.436.436 0 0 1 .049.12c.032.288.046.48.046.576-.016.56-.006.959.026 1.199l-1.489.096c-.656.048-1.135.128-1.439.24s-.457.32-.457.625c0 .176.185.32.553.431.256.08.504.12.744.12.384 0 .936-.056 1.656-.168.736-.112 1.272-.176 1.608-.192.111 0 .43-.032.958-.096.4-.048.729-.055.985-.023.192.016.377.024.553.024.8 0 1.199-.265 1.199-.793 0-.576-.35-.815-1.055-.72-.208.033-.4.072-.576.12-.672.064-1.137.105-1.393.121-.224.016-.343.016-.359 0-.16-.64-.25-1.433-.266-2.377-.016-1.52-.047-2.503-.095-2.951V12.38c.352-.112 1.216-.29 2.592-.53 1.168-.191 2.033-.471 2.593-.84.848-.543 1.367-1.351 1.559-2.423.016-.128-.016-.479-.096-1.055-.048-.288-.247-.609-.6-.96-.56-.545-1.087-.88-1.583-1.009-1.217-.32-2.168-.504-2.856-.552A7.156 7.156 0 0 0 48.376 5zm-10.441.707-.719.047c-.976.064-2.097.217-3.361.457-.448.08-.672.287-.672.623 0 .048.01.104.025.168.208.176.367.264.479.264.304 0 .754-.088 1.346-.264s1.04-.264 1.343-.264c.176 0 .344.017.504.05a820.91 820.91 0 0 1-1.56 7.485 33.523 33.523 0 0 0-.48 2.809c-1.185-.08-1.817-.136-1.897-.168-.368-.064-.655-.08-.863-.049-.384.064-.577.29-.577.674 0 .368.497.592 1.489.672 1.2.096 1.927.16 2.183.191.512.064.802.103.866.12a.92.92 0 0 0 .6-.215.752.752 0 0 0 .263-.577c0-.096-.017-.168-.05-.216s-.15-.12-.358-.215c-.192-.096-.288-.169-.288-.217a.95.95 0 0 1 .096-.217c.064-.416.152-.64.264-.672 1.92-.592 3.304-.879 4.152-.863.544 1.808.807 2.752.791 2.832a58.84 58.84 0 0 1-.912.6c-.432.288-.646.536-.646.744 0 .144.063.273.191.385s.264.168.408.168c.448-.016.76-.09.936-.217.96-.736 1.999-1.335 3.119-1.8l.72-.288c.225-.128.33-.335.313-.623-.032-.192-.073-.314-.121-.362a.857.857 0 0 0-.55-.214c-.177 0-.505.119-.985.359s-.823.376-1.031.408a279.85 279.85 0 0 0-1.37-3.504l-1.08-2.472c-.48-1.184-.815-2.024-1.007-2.52-.304-.8-.504-1.367-.6-1.703-.24-.896-.561-1.368-.961-1.416zm-25.522.35a1.594 1.594 0 0 0-.379.088c-.24.08-.352.232-.336.456.016.304.031.504.047.6-.048.464-.08.807-.096 1.031a4.858 4.858 0 0 1-.24-.214c-.56-.96-1.431-1.442-2.615-1.442-.608 0-1.185.136-1.729.408-.224.112-.406.336-.55.672l-.264.842c-.352 1.12-.53 1.83-.53 2.135v1.392c0 .736.353 1.352 1.057 1.848.64.464 1.336.688 2.088.672.144 0 .448.032.912.096.864.128 1.456.295 1.776.503.58.387.922.937 1.035 1.645v1.004l.004.027c-.053.3-.158.538-.319.71-.56.607-1.552.982-2.976 1.126-.496.048-1.032-.254-1.608-.91-.672-.768-1.007-1.721-1.007-2.857-.08-.272-.314-.409-.698-.409-.592 0-.918.224-.982.672 0 .032.039.13.119.29.032.063.032.246 0 .55-.032.384-.04.73-.023 1.033a.55.55 0 0 0-.073.215v1.32c.048.112.073.305.073.577 0 .128-.01.327-.026.6s-.023.473-.023.6c0 .72.185 1.08.553 1.08.24 0 .558-.128.958-.384.064-.336.074-.769.026-1.297-.064-.72-.098-1.15-.098-1.295.896.96 1.794 1.384 2.69 1.272 1.67-.213 2.905-.62 3.71-1.223.022.125.066.359.083.461.08.144.152.258.216.338.192.624.704 1.103 1.536 1.44a5.894 5.894 0 0 0 2.185.408c.576 0 1.07-.073 1.486-.217 1.008-.352 1.658-.68 1.946-.985.592-.624.952-1.624 1.08-3 .08-.816.112-1.543.096-2.183 0-.112-.08-.217-.24-.313-.16-.112-.297-.168-.409-.168-.608.048-.912.272-.912.672 0 .08.007.16.023.24.144.625.13 1.417-.046 2.377-.32 1.76-1.432 2.6-3.336 2.52a2.795 2.795 0 0 1-1.176-.336c-.8-.416-1.272-1.24-1.416-2.473a43.673 43.673 0 0 1-.072-1.53c-.044-1.71.155-3.144.6-4.302.32-.816.743-1.222 1.27-1.222.449 0 .962.112 1.538.336s1.048.487 1.416.79c.272.369.447.665.527.89a.597.597 0 0 0 .264.072c.16.128.456.118.888-.026.16-.048.272-.191.336-.431-.016.048-.032-.072-.048-.36l.048-1.656c.032-1.024.047-1.615.047-1.775-.048-.288-.318-.432-.814-.432s-.73.35-.697 1.055c.032.512.04.792.025.84-.016.352-.033.551-.049.6-.112 0-.192-.016-.24-.048a6.207 6.207 0 0 0-3.215-.863 4.92 4.92 0 0 0-1.01.096c-.672.144-1.287.959-1.847 2.447-.064.16-.145.593-.24 1.297-.018.121-.024.196-.038.303-.704-.545-1.717-.856-3.037-.934-.688-.032-1.167-.105-1.44-.217-.447-.176-.751-.512-.911-1.008a11.67 11.67 0 0 1-.192-1.033c.016.032.031-.039.047-.215.048-.48.17-1.049.361-1.705.128-.448.216-.75.264-.91.16-.48.576-.696 1.248-.648.464.032.863.392 1.2 1.08.351.688.609 1.216.769 1.584.208.72.296 1.294.264 1.726 0-.048.046.081.142.385.192.112.394.168.602.168.4 0 .638-.151.718-.455.032-.448.032-.8 0-1.057.176-2.016.28-3.32.313-3.912.016-.352-.016-.624-.096-.816-.098-.238-.276-.348-.533-.328zm35.027.156c3.104.016 4.8.704 5.088 2.064.032.176.008.447-.072.815-.192.832-.752 1.335-1.68 1.511-1.648.32-2.6.481-2.856.481a6.855 6.855 0 0 1-.671.072c-.112-2.08-.168-3.679-.168-4.799.16-.096.279-.144.359-.144zm-22.094.27a1.463 1.463 0 0 0-.178.005c-.816.096-1.64.199-2.472.31-1.328.225-2.007.529-2.04.913-.031.416.385.625 1.249.625.224-.048.392-.08.504-.096.208-.032.344-.017.408.047a50.11 50.11 0 0 0 .263 3.649c.048.432.056.687.024.767-.352-.08-.64.056-.863.408-.016.144-.04.225-.073.24v.073c.064.224.215.375.455.455.096.032.289.056.577.072-.016.208 0 .624.048 1.248.16 2.16.248 3.481.264 3.961a.412.412 0 0 1-.096.264c-.48.064-.96.12-1.44.168-.591.112-.863.43-.815.959.208.256.582.385 1.126.385.224 0 .77-.073 1.633-.217.752-.112 1.312-.19 1.68-.239.736-.192 1.103-.505 1.103-.937 0-.304-.119-.496-.359-.576-.304-.096-.688-.055-1.152.12a.466.466 0 0 1-.36 0 43.117 43.117 0 0 0-.12-2.16c0-.095-.016-.27-.048-.527a3.49 3.49 0 0 1-.048-.504v-2.328c.704-.192 1.168-.32 1.392-.384a.602.602 0 0 1 .24 0c.576.224.968.375 1.176.455.672.272 1.088.865 1.248 1.777.288.912.512 2.175.672 3.791.064.592.305 1.137.72 1.633.465.56.976.815 1.536.767.656-.064 1.145-.2 1.465-.408.272-.176.56-.504.863-.984.304-.496.416-.879.336-1.15-.08-.289-.287-.434-.623-.434-.32 0-.592.104-.816.312-.16.304-.233.545-.217.721-.112.48-.416.704-.912.672-.112-.016-.28-.12-.504-.313-.208-.208-.32-.368-.336-.48-.144-.48-.312-1.575-.504-3.287-.144-1.296-.424-2.272-.84-2.928-.144-.224-.416-.481-.816-.77-.016-.015-.024-.047-.024-.095 1.104-.528 1.849-1.127 2.233-1.799.112-.176.175-.473.191-.889.032-.448.015-.76-.049-.935-.432-1.36-1.471-2.097-3.119-2.21l-1.057-.071a36.123 36.123 0 0 0-1.525-.077zm-.273 1.253c1.504-.016 2.494.04 2.974.168 1.088.288 1.633.975 1.633 2.063 0 .304-.073.528-.217.672-.768.8-1.59 1.2-2.47 1.2-.464 0-.754.016-.866.048a2.234 2.234 0 0 0-.336.265c-.528.144-.927.223-1.199.239l-.119-1.584c-.048-.784-.082-1.32-.098-1.608a1.85 1.85 0 0 1 .073-.672c.048-.16.04-.36-.024-.6.288-.127.505-.19.649-.19zM37.91 8.803a252.522 252.522 0 0 1 1.296 2.879c.464 1.152.808 1.952 1.032 2.4 0 .032-.049.08-.145.144-.816.144-1.943.352-3.383.624z" fill="#fff"/>
</svg>